<mxfile host="app.diagrams.net" modified="2021-07-22T03:36:49.174Z" agent="5.0 (X11; Linux x86_64) AppleWebKit/537.36 (KHTML, like Gecko) Chrome/91.0.4472.114 Safari/537.36" etag="EnZpFKBGvpZaJ3xrOxBE" version="14.8.5" type="github">
  <diagram id="nUSJ--qEf_A7Ushkb8u8" name="第 1 页">
    <mxGraphModel dx="5567" dy="4971" grid="1" gridSize="10" guides="1" tooltips="1" connect="1" arrows="1" fold="1" page="1" pageScale="1" pageWidth="827" pageHeight="1169" math="0" shadow="0">
      <root>
        <mxCell id="0" />
        <mxCell id="1" parent="0" />
        <mxCell id="Y_MbyAmzNO89II4BcLTL-1" value="" style="rounded=1;arcSize=10;strokeWidth=3;" vertex="1" parent="1">
          <mxGeometry x="800" y="-890" width="480" height="870" as="geometry" />
        </mxCell>
        <mxCell id="Y_MbyAmzNO89II4BcLTL-2" value="" style="rounded=1;whiteSpace=wrap;html=1;strokeWidth=2;fillWeight=4;hachureGap=8;hachureAngle=45;sketch=1;strokeColor=#666666;fontColor=#333333;fillColor=#FFD011;" vertex="1" parent="1">
          <mxGeometry x="934" y="-710" width="220" height="220" as="geometry" />
        </mxCell>
        <mxCell id="Y_MbyAmzNO89II4BcLTL-3" value="" style="rounded=1;whiteSpace=wrap;html=1;strokeWidth=2;fillWeight=4;hachureGap=8;hachureAngle=45;sketch=1;rotation=90;fillColor=#46B4A5;" vertex="1" parent="1">
          <mxGeometry x="930.5" y="-406.5" width="220" height="220" as="geometry" />
        </mxCell>
        <mxCell id="Y_MbyAmzNO89II4BcLTL-4" value="" style="outlineConnect=0;dashed=0;verticalLabelPosition=bottom;verticalAlign=top;align=center;html=1;shape=mxgraph.aws3.connect;rotation=90;strokeColor=#d6b656;fillColor=#FFD011;gradientColor=#46B4A5;gradientDirection=east;" vertex="1" parent="1">
          <mxGeometry x="1008.5" y="-510" width="71" height="119" as="geometry" />
        </mxCell>
        <mxCell id="Y_MbyAmzNO89II4BcLTL-5" value="" style="shape=image;imageAspect=0;aspect=fixed;verticalLabelPosition=bottom;verticalAlign=top;image=https://cdn.jsdelivr.net/gh/rjman-ljm/resources@master/assets/1626922455062-1626922455060.png;rotation=90;" vertex="1" parent="1">
          <mxGeometry x="969" y="-676" width="150" height="150" as="geometry" />
        </mxCell>
        <mxCell id="Y_MbyAmzNO89II4BcLTL-6" value="" style="shape=image;imageAspect=0;aspect=fixed;verticalLabelPosition=bottom;verticalAlign=top;fillColor=#FFFFFF;image=https://cdn.jsdelivr.net/gh/rjman-ljm/resources@master/assets/1626922872206-nav_liquid.png;rotation=90;" vertex="1" parent="1">
          <mxGeometry x="994" y="-347.25" width="100" height="100" as="geometry" />
        </mxCell>
        <mxCell id="Y_MbyAmzNO89II4BcLTL-7" value="" style="rounded=1;whiteSpace=wrap;html=1;absoluteArcSize=1;arcSize=14;strokeWidth=2;fillColor=#FFFFFF;" vertex="1" parent="1">
          <mxGeometry x="50" y="-1380" width="563.5" height="380" as="geometry" />
        </mxCell>
        <mxCell id="Y_MbyAmzNO89II4BcLTL-8" value="" style="rounded=1;whiteSpace=wrap;html=1;strokeWidth=2;fillWeight=4;hachureGap=8;hachureAngle=45;sketch=1;strokeColor=#666666;fontColor=#333333;fillColor=#FFD011;" vertex="1" parent="1">
          <mxGeometry x="297.25" y="-1299" width="220" height="220" as="geometry" />
        </mxCell>
        <mxCell id="Y_MbyAmzNO89II4BcLTL-9" value="" style="aspect=fixed;html=1;points=[];align=center;image;fontSize=12;image=img/lib/azure2/compute/Function_Apps.svg;rotation=90;" vertex="1" parent="1">
          <mxGeometry x="231.25" y="-1220" width="68" height="60" as="geometry" />
        </mxCell>
        <mxCell id="Y_MbyAmzNO89II4BcLTL-10" value="" style="rounded=1;whiteSpace=wrap;html=1;strokeWidth=2;fillWeight=4;hachureGap=8;hachureAngle=45;sketch=1;rotation=-180;strokeColor=#9673a6;fillColor=#7b1af7;" vertex="1" parent="1">
          <mxGeometry x="133.25" y="-1300" width="98" height="220" as="geometry" />
        </mxCell>
        <mxCell id="Y_MbyAmzNO89II4BcLTL-11" value="" style="shape=image;imageAspect=0;aspect=fixed;verticalLabelPosition=bottom;verticalAlign=top;image=https://cdn.jsdelivr.net/gh/rjman-ljm/resources@master/assets/1626922455062-1626922455060.png;" vertex="1" parent="1">
          <mxGeometry x="332.25" y="-1265" width="150" height="150" as="geometry" />
        </mxCell>
        <mxCell id="Y_MbyAmzNO89II4BcLTL-12" value="" style="shape=image;imageAspect=0;aspect=fixed;verticalLabelPosition=bottom;verticalAlign=top;fillColor=#FFFFFF;image=https://cdn.jsdelivr.net/gh/rjman-ljm/resources@master/assets/1626922566462-1626922566461.png;" vertex="1" parent="1">
          <mxGeometry x="133.25" y="-1239" width="98" height="98" as="geometry" />
        </mxCell>
        <mxCell id="Y_MbyAmzNO89II4BcLTL-13" value="" style="rounded=1;arcSize=10;strokeWidth=3;" vertex="1" parent="1">
          <mxGeometry x="-580" y="-830" width="1150" height="830" as="geometry" />
        </mxCell>
        <mxCell id="Y_MbyAmzNO89II4BcLTL-14" value="" style="shape=image;imageAspect=0;aspect=fixed;verticalLabelPosition=bottom;verticalAlign=top;fillColor=#46B4A5;gradientColor=#46B4A5;image=https://cdn.jsdelivr.net/gh/rjman-ljm/resources@master/assets/1626923503218-1626923503216.png;" vertex="1" parent="1">
          <mxGeometry x="-105" y="-540" width="200" height="200" as="geometry" />
        </mxCell>
        <mxCell id="Y_MbyAmzNO89II4BcLTL-15" value="" style="shape=image;imageAspect=0;aspect=fixed;verticalLabelPosition=bottom;verticalAlign=top;image=https://cdn.jsdelivr.net/gh/rjman-ljm/resources@master/assets/1626922455062-1626922455060.png;" vertex="1" parent="1">
          <mxGeometry x="-515" y="-540" width="200" height="200" as="geometry" />
        </mxCell>
        <mxCell id="Y_MbyAmzNO89II4BcLTL-16" value="" style="shape=image;imageAspect=0;aspect=fixed;verticalLabelPosition=bottom;verticalAlign=top;fillColor=#46B4A5;gradientColor=#46B4A5;image=https://cdn.jsdelivr.net/gh/rjman-ljm/resources@master/assets/1626923540650-1626923540649.png;" vertex="1" parent="1">
          <mxGeometry x="235" y="-715.8800000000001" width="200" height="200" as="geometry" />
        </mxCell>
        <mxCell id="Y_MbyAmzNO89II4BcLTL-17" value="" style="shape=image;imageAspect=0;aspect=fixed;verticalLabelPosition=bottom;verticalAlign=top;fillColor=#46B4A5;gradientColor=#46B4A5;image=https://cdn.jsdelivr.net/gh/rjman-ljm/resources@master/assets/1626923598269-1626923598267.png;" vertex="1" parent="1">
          <mxGeometry x="235" y="-355.5" width="200" height="200" as="geometry" />
        </mxCell>
        <mxCell id="Y_MbyAmzNO89II4BcLTL-18" value="" style="outlineConnect=0;dashed=0;verticalLabelPosition=bottom;verticalAlign=top;align=center;html=1;shape=mxgraph.aws3.macie;fillColor=#34BBC9;gradientColor=none;pointerEvents=1;strokeWidth=3;rotation=-30;" vertex="1" parent="1">
          <mxGeometry x="43.789999999999964" y="-617.22" width="219.88" height="75.5" as="geometry" />
        </mxCell>
        <mxCell id="Y_MbyAmzNO89II4BcLTL-19" value="" style="outlineConnect=0;dashed=0;verticalLabelPosition=bottom;verticalAlign=top;align=center;html=1;shape=mxgraph.aws3.macie;fillColor=#34BBC9;gradientColor=none;pointerEvents=1;strokeWidth=3;rotation=30;" vertex="1" parent="1">
          <mxGeometry x="63.659999999999854" y="-377.75" width="220" height="75.5" as="geometry" />
        </mxCell>
        <mxCell id="Y_MbyAmzNO89II4BcLTL-20" value="" style="outlineConnect=0;dashed=0;verticalLabelPosition=bottom;verticalAlign=top;align=center;html=1;shape=mxgraph.aws3.macie;fillColor=#34BBC9;gradientColor=none;pointerEvents=1;strokeWidth=3;rotation=0;" vertex="1" parent="1">
          <mxGeometry x="-335" y="-501" width="240" height="75.5" as="geometry" />
        </mxCell>
      </root>
    </mxGraphModel>
  </diagram>
</mxfile>
